# xmcd
#
# Track frame offsets:
#	150
#	15932
#	31056
#	43809
#	53735
#	72017
#	85177
#	97820
#	113993
#	125769
#	135922
#
# Disc length: 2172 seconds
#
# Revision: 1
# Processed by: cddbd v1.5.2PL0 Copyright (c) Steve Scherf et al.
# Submitted via: audiograbber 1.83.01
#
DISCID=80087a0b
DTITLE=Siggi Björns - Baltic Blue
DYEAR=2012
DGENRE=Country
TTITLE0=Siggi Björns - Baltic Blue
TTITLE1=Bob Dylan - Don't Think Twice
TTITLE2=John Denver - Country Roads
TTITLE3=J. J. Cale - Drifters Life
TTITLE4=Bob Dylan - Blowing In The Wind
TTITLE5=Lennon and McCartney - I've Just Seen A Face
TTITLE6=Crosby, Stills, Nash and Yound - Teach Your Children
TTITLE7=Harold Arlen and E. Y. Harburg - Over The Rainbow
TTITLE8=Lennon and McCartney - Norweigian Wood
TTITLE9=Milton Ager and Jack Yellen - Ain't She Sweet
TTITLE10=(Walzing Mathilda) Tom Waits - Tom Traubert's Blues
EXTD=
EXTT0=
EXTT1=
EXTT2=
EXTT3=
EXTT4=
EXTT5=
EXTT6=
EXTT7=
EXTT8=
EXTT9=
EXTT10=
PLAYORDER=
